{
    "asset" : {
        "generator" : "Khronos glTF Blender I/O v1.7.33",
        "version" : "2.0"
    },
    "scene" : 0,
    "scenes" : [
        {
            "name" : "Scene",
            "nodes" : [
                0,
                1,
                2,
                3,
                4,
                5,
                6,
                7,
                8
            ]
        }
    ],
    "nodes" : [
        {
            "mesh" : 0,
            "name" : "Cylinder",
            "rotation" : [
                0.7071068286895752,
                0,
                0,
                0.7071068286895752
            ],
            "scale" : [
                0.5050861239433289,
                0.5050861239433289,
                0.5050861239433289
            ],
            "translation" : [
                0.957170844078064,
                1.3191721439361572,
                -0.0691884458065033
            ]
        },
        {
            "name" : "Empty",
            "scale" : [
                0.5050861239433289,
                0.5050861239433289,
                0.5050861239433289
            ],
            "translation" : [
                0.957170844078064,
                1.3191721439361572,
                -0.3200773000717163
            ]
        },
        {
            "mesh" : 1,
            "name" : "Cube",
            "rotation" : [
                0,
                0,
                -0.031410764902830124,
                0.9995066523551941
            ],
            "scale" : [
                0.5050861239433289,
                0.5050861239433289,
                0.5050861239433289
            ],
            "translation" : [
                0.957170844078064,
                1.3191721439361572,
                -0.3200773000717163
            ]
        },
        {
            "mesh" : 2,
            "name" : "Cylinder.001",
            "rotation" : [
                0.5,
                -0.5,
                -0.5,
                0.4999999701976776
            ],
            "scale" : [
                0.03557219356298447,
                0.03557219356298447,
                0.03557219356298447
            ],
            "translation" : [
                0.9519461393356323,
                1.3144927024841309,
                -0.2887302041053772
            ]
        },
        {
            "mesh" : 3,
            "name" : "Cylinder.002",
            "scale" : [
                0.005911491811275482,
                0.005911491811275482,
                0.005911491811275482
            ],
            "translation" : [
                0.9519461393356323,
                0.9854374527931213,
                -0.27639323472976685
            ]
        },
        {
            "mesh" : 4,
            "name" : "Cone",
            "scale" : [
                -0.01271189097315073,
                -0.01271189097315073,
                -0.01271189097315073
            ],
            "translation" : [
                0.9519461393356323,
                0.9741852879524231,
                -0.27583298087120056
            ]
        },
        {
            "mesh" : 5,
            "name" : "Cube.001",
            "scale" : [
                1.283809781074524,
                0.4197652041912079,
                0.5563878417015076
            ],
            "translation" : [
                -0.010344386100769043,
                -0.009264707565307617,
                -0.42470359802246094
            ]
        },
        {
            "mesh" : 6,
            "name" : "Cylinder.003",
            "scale" : [
                0.5770195722579956,
                0.5770195722579956,
                0.5770195722579956
            ],
            "translation" : [
                0.96329665184021,
                0.5834362506866455,
                -0.42470359802246094
            ]
        },
        {
            "mesh" : 7,
            "name" : "Cylinder.004",
            "scale" : [
                0.5770195722579956,
                0.5770195722579956,
                0.5770195722579956
            ],
            "translation" : [
                -1.0452346801757812,
                0.5834362506866455,
                -0.42470359802246094
            ]
        }
    ],
    "materials" : [
        {
            "doubleSided" : true,
            "name" : "Material.003",
            "pbrMetallicRoughness" : {
                "baseColorFactor" : [
                    0.8019219636917114,
                    0.2786308526992798,
                    0.07390585541725159,
                    1
                ],
                "metallicFactor" : 0,
                "roughnessFactor" : 0.5
            }
        },
        {
            "doubleSided" : true,
            "name" : "Material.007",
            "pbrMetallicRoughness" : {
                "metallicFactor" : 0,
                "roughnessFactor" : 0.5
            }
        },
        {
            "doubleSided" : true,
            "name" : "Material.005",
            "pbrMetallicRoughness" : {
                "baseColorFactor" : [
                    0,
                    0,
                    0,
                    1
                ],
                "metallicFactor" : 0,
                "roughnessFactor" : 0.5
            }
        },
        {
            "doubleSided" : true,
            "name" : "Material.006",
            "pbrMetallicRoughness" : {
                "baseColorFactor" : [
                    0,
                    0,
                    0,
                    1
                ],
                "metallicFactor" : 0,
                "roughnessFactor" : 0.5
            }
        },
        {
            "doubleSided" : true,
            "name" : "Material.004",
            "pbrMetallicRoughness" : {
                "baseColorFactor" : [
                    0,
                    0,
                    0,
                    1
                ],
                "metallicFactor" : 0,
                "roughnessFactor" : 0.5
            }
        },
        {
            "doubleSided" : true,
            "name" : "Material.001",
            "pbrMetallicRoughness" : {
                "baseColorFactor" : [
                    0.04190114513039589,
                    0.8019639253616333,
                    0,
                    1
                ],
                "metallicFactor" : 0.5984252095222473,
                "roughnessFactor" : 0.5
            }
        },
        {
            "doubleSided" : true,
            "name" : "Material.008",
            "pbrMetallicRoughness" : {
                "baseColorFactor" : [
                    0.8018350601196289,
                    0.053294047713279724,
                    0,
                    1
                ],
                "metallicFactor" : 0,
                "roughnessFactor" : 0.5
            }
        },
        {
            "doubleSided" : true,
            "name" : "Material.002",
            "pbrMetallicRoughness" : {
                "baseColorFactor" : [
                    0.8018734455108643,
                    0.10390788316726685,
                    0,
                    1
                ],
                "metallicFactor" : 0,
                "roughnessFactor" : 0.5
            }
        }
    ],
    "meshes" : [
        {
            "name" : "Cylinder",
            "primitives" : [
                {
                    "attributes" : {
                        "POSITION" : 0,
                        "NORMAL" : 1,
                        "TEXCOORD_0" : 2
                    },
                    "indices" : 3,
                    "material" : 0
                }
            ]
        },
        {
            "name" : "Cube.004",
            "primitives" : [
                {
                    "attributes" : {
                        "POSITION" : 4,
                        "NORMAL" : 5,
                        "TEXCOORD_0" : 6
                    },
                    "indices" : 7,
                    "material" : 1
                }
            ]
        },
        {
            "name" : "Cylinder.001",
            "primitives" : [
                {
                    "attributes" : {
                        "POSITION" : 8,
                        "NORMAL" : 9,
                        "TEXCOORD_0" : 10
                    },
                    "indices" : 3,
                    "material" : 2
                }
            ]
        },
        {
            "name" : "Cylinder.002",
            "primitives" : [
                {
                    "attributes" : {
                        "POSITION" : 11,
                        "NORMAL" : 12,
                        "TEXCOORD_0" : 13
                    },
                    "indices" : 3,
                    "material" : 3
                }
            ]
        },
        {
            "name" : "Cone",
            "primitives" : [
                {
                    "attributes" : {
                        "POSITION" : 14,
                        "NORMAL" : 15,
                        "TEXCOORD_0" : 16
                    },
                    "indices" : 17,
                    "material" : 4
                }
            ]
        },
        {
            "name" : "Cube.005",
            "primitives" : [
                {
                    "attributes" : {
                        "POSITION" : 18,
                        "NORMAL" : 19,
                        "TEXCOORD_0" : 20
                    },
                    "indices" : 21,
                    "material" : 5
                }
            ]
        },
        {
            "name" : "Cylinder.003",
            "primitives" : [
                {
                    "attributes" : {
                        "POSITION" : 22,
                        "NORMAL" : 23,
                        "TEXCOORD_0" : 24
                    },
                    "indices" : 25,
                    "material" : 6
                }
            ]
        },
        {
            "name" : "Cylinder.004",
            "primitives" : [
                {
                    "attributes" : {
                        "POSITION" : 26,
                        "NORMAL" : 27,
                        "TEXCOORD_0" : 28
                    },
                    "indices" : 29,
                    "material" : 7
                }
            ]
        }
    ],
    "accessors" : [
        {
            "bufferView" : 0,
            "componentType" : 5126,
            "count" : 192,
            "max" : [
                1,
                -0.4248325824737549,
                1
            ],
            "min" : [
                -1,
                -1,
                -1
            ],
            "type" : "VEC3"
        },
        {
            "bufferView" : 1,
            "componentType" : 5126,
            "count" : 192,
            "type" : "VEC3"
        },
        {
            "bufferView" : 2,
            "componentType" : 5126,
            "count" : 192,
            "type" : "VEC2"
        },
        {
            "bufferView" : 3,
            "componentType" : 5123,
            "count" : 372,
            "type" : "SCALAR"
        },
        {
            "bufferView" : 4,
            "componentType" : 5126,
            "count" : 24,
            "max" : [
                -0.7818195223808289,
                -0.03250081092119217,
                0.05403336510062218
            ],
            "min" : [
                -0.889886200428009,
                -0.05403333902359009,
                -0.054033312946558
            ],
            "type" : "VEC3"
        },
        {
            "bufferView" : 5,
            "componentType" : 5126,
            "count" : 24,
            "type" : "VEC3"
        },
        {
            "bufferView" : 6,
            "componentType" : 5126,
            "count" : 24,
            "type" : "VEC2"
        },
        {
            "bufferView" : 7,
            "componentType" : 5123,
            "count" : 36,
            "type" : "SCALAR"
        },
        {
            "bufferView" : 8,
            "componentType" : 5126,
            "count" : 192,
            "max" : [
                1,
                1,
                1
            ],
            "min" : [
                -1,
                -1,
                -1
            ],
            "type" : "VEC3"
        },
        {
            "bufferView" : 9,
            "componentType" : 5126,
            "count" : 192,
            "type" : "VEC3"
        },
        {
            "bufferView" : 10,
            "componentType" : 5126,
            "count" : 192,
            "type" : "VEC2"
        },
        {
            "bufferView" : 11,
            "componentType" : 5126,
            "count" : 192,
            "max" : [
                1,
                55.58137130737305,
                1
            ],
            "min" : [
                -1,
                -1,
                -1
            ],
            "type" : "VEC3"
        },
        {
            "bufferView" : 12,
            "componentType" : 5126,
            "count" : 192,
            "type" : "VEC3"
        },
        {
            "bufferView" : 13,
            "componentType" : 5126,
            "count" : 192,
            "type" : "VEC2"
        },
        {
            "bufferView" : 14,
            "componentType" : 5126,
            "count" : 128,
            "max" : [
                1,
                1,
                1
            ],
            "min" : [
                -1,
                -1,
                -1
            ],
            "type" : "VEC3"
        },
        {
            "bufferView" : 15,
            "componentType" : 5126,
            "count" : 128,
            "type" : "VEC3"
        },
        {
            "bufferView" : 16,
            "componentType" : 5126,
            "count" : 128,
            "type" : "VEC2"
        },
        {
            "bufferView" : 17,
            "componentType" : 5123,
            "count" : 186,
            "type" : "SCALAR"
        },
        {
            "bufferView" : 18,
            "componentType" : 5126,
            "count" : 1224,
            "max" : [
                1,
                1,
                1
            ],
            "min" : [
                -1,
                -1,
                -1
            ],
            "type" : "VEC3"
        },
        {
            "bufferView" : 19,
            "componentType" : 5126,
            "count" : 1224,
            "type" : "VEC3"
        },
        {
            "bufferView" : 20,
            "componentType" : 5126,
            "count" : 1224,
            "type" : "VEC2"
        },
        {
            "bufferView" : 21,
            "componentType" : 5123,
            "count" : 2436,
            "type" : "SCALAR"
        },
        {
            "bufferView" : 22,
            "componentType" : 5126,
            "count" : 942,
            "max" : [
                0.13999304175376892,
                0.6517503261566162,
                0.1399720162153244
            ],
            "min" : [
                -0.13999304175376892,
                -0.36000001430511475,
                -0.14000004529953003
            ],
            "type" : "VEC3"
        },
        {
            "bufferView" : 23,
            "componentType" : 5126,
            "count" : 942,
            "type" : "VEC3"
        },
        {
            "bufferView" : 24,
            "componentType" : 5126,
            "count" : 942,
            "type" : "VEC2"
        },
        {
            "bufferView" : 25,
            "componentType" : 5123,
            "count" : 1872,
            "type" : "SCALAR"
        },
        {
            "bufferView" : 26,
            "componentType" : 5126,
            "count" : 942,
            "max" : [
                0.13999304175376892,
                0.36000001430511475,
                0.1399720162153244
            ],
            "min" : [
                -0.13999304175376892,
                -0.36000001430511475,
                -0.14000004529953003
            ],
            "type" : "VEC3"
        },
        {
            "bufferView" : 27,
            "componentType" : 5126,
            "count" : 942,
            "type" : "VEC3"
        },
        {
            "bufferView" : 28,
            "componentType" : 5126,
            "count" : 942,
            "type" : "VEC2"
        },
        {
            "bufferView" : 29,
            "componentType" : 5123,
            "count" : 1872,
            "type" : "SCALAR"
        }
    ],
    "bufferViews" : [
        {
            "buffer" : 0,
            "byteLength" : 2304,
            "byteOffset" : 0
        },
        {
            "buffer" : 0,
            "byteLength" : 2304,
            "byteOffset" : 2304
        },
        {
            "buffer" : 0,
            "byteLength" : 1536,
            "byteOffset" : 4608
        },
        {
            "buffer" : 0,
            "byteLength" : 744,
            "byteOffset" : 6144
        },
        {
            "buffer" : 0,
            "byteLength" : 288,
            "byteOffset" : 6888
        },
        {
            "buffer" : 0,
            "byteLength" : 288,
            "byteOffset" : 7176
        },
        {
            "buffer" : 0,
            "byteLength" : 192,
            "byteOffset" : 7464
        },
        {
            "buffer" : 0,
            "byteLength" : 72,
            "byteOffset" : 7656
        },
        {
            "buffer" : 0,
            "byteLength" : 2304,
            "byteOffset" : 7728
        },
        {
            "buffer" : 0,
            "byteLength" : 2304,
            "byteOffset" : 10032
        },
        {
            "buffer" : 0,
            "byteLength" : 1536,
            "byteOffset" : 12336
        },
        {
            "buffer" : 0,
            "byteLength" : 2304,
            "byteOffset" : 13872
        },
        {
            "buffer" : 0,
            "byteLength" : 2304,
            "byteOffset" : 16176
        },
        {
            "buffer" : 0,
            "byteLength" : 1536,
            "byteOffset" : 18480
        },
        {
            "buffer" : 0,
            "byteLength" : 1536,
            "byteOffset" : 20016
        },
        {
            "buffer" : 0,
            "byteLength" : 1536,
            "byteOffset" : 21552
        },
        {
            "buffer" : 0,
            "byteLength" : 1024,
            "byteOffset" : 23088
        },
        {
            "buffer" : 0,
            "byteLength" : 372,
            "byteOffset" : 24112
        },
        {
            "buffer" : 0,
            "byteLength" : 14688,
            "byteOffset" : 24484
        },
        {
            "buffer" : 0,
            "byteLength" : 14688,
            "byteOffset" : 39172
        },
        {
            "buffer" : 0,
            "byteLength" : 9792,
            "byteOffset" : 53860
        },
        {
            "buffer" : 0,
            "byteLength" : 4872,
            "byteOffset" : 63652
        },
        {
            "buffer" : 0,
            "byteLength" : 11304,
            "byteOffset" : 68524
        },
        {
            "buffer" : 0,
            "byteLength" : 11304,
            "byteOffset" : 79828
        },
        {
            "buffer" : 0,
            "byteLength" : 7536,
            "byteOffset" : 91132
        },
        {
            "buffer" : 0,
            "byteLength" : 3744,
            "byteOffset" : 98668
        },
        {
            "buffer" : 0,
            "byteLength" : 11304,
            "byteOffset" : 102412
        },
        {
            "buffer" : 0,
            "byteLength" : 11304,
            "byteOffset" : 113716
        },
        {
            "buffer" : 0,
            "byteLength" : 7536,
            "byteOffset" : 125020
        },
        {
            "buffer" : 0,
            "byteLength" : 3744,
            "byteOffset" : 132556
        }
    ],
    "buffers" : [
        {
            "byteLength" : 136300,
            "uri" : "data:application/octet-stream;base64,"
        }
    ]
}
