{
    "asset" : {
        "generator" : "Khronos glTF Blender I/O v1.7.33",
        "version" : "2.0"
    },
    "scene" : 0,
    "scenes" : [
        {
            "name" : "Scene",
            "nodes" : [
                0
            ]
        }
    ],
    "nodes" : [
        {
            "mesh" : 0,
            "name" : "\u0421\u0442\u0440\u0435\u043b\u043a\u0430",
            "scale" : [
                0.1387614756822586,
                0.29126784205436707,
                0.004485453478991985
            ]
        }
    ],
    "materials" : [
        {
            "doubleSided" : true,
            "name" : "Material.001",
            "pbrMetallicRoughness" : {
                "baseColorFactor" : [
                    0,
                    0,
                    0,
                    1
                ],
                "metallicFactor" : 0,
                "roughnessFactor" : 0.5
            }
        }
    ],
    "meshes" : [
        {
            "name" : "Plane",
            "primitives" : [
                {
                    "attributes" : {
                        "POSITION" : 0,
                        "NORMAL" : 1,
                        "TEXCOORD_0" : 2
                    },
                    "indices" : 3,
                    "material" : 0
                }
            ]
        }
    ],
    "accessors" : [
        {
            "bufferView" : 0,
            "componentType" : 5126,
            "count" : 7,
            "max" : [
                1.5750432014465332,
                5.233641431345859e-08,
                2.8213653564453125
            ],
            "min" : [
                -0.5939656496047974,
                5.233641431345859e-08,
                -2.8213653564453125
            ],
            "type" : "VEC3"
        },
        {
            "bufferView" : 1,
            "componentType" : 5126,
            "count" : 7,
            "type" : "VEC3"
        },
        {
            "bufferView" : 2,
            "componentType" : 5126,
            "count" : 7,
            "type" : "VEC2"
        },
        {
            "bufferView" : 3,
            "componentType" : 5123,
            "count" : 9,
            "type" : "SCALAR"
        }
    ],
    "bufferViews" : [
        {
            "buffer" : 0,
            "byteLength" : 84,
            "byteOffset" : 0
        },
        {
            "buffer" : 0,
            "byteLength" : 84,
            "byteOffset" : 84
        },
        {
            "buffer" : 0,
            "byteLength" : 56,
            "byteOffset" : 168
        },
        {
            "buffer" : 0,
            "byteLength" : 18,
            "byteOffset" : 224
        }
    ],
    "buffers" : [
        {
            "byteLength" : 244,
            "uri" : "data:application/octet-stream;base64,"
        }
    ]
}
