{
    "asset" : {
        "generator" : "Khronos glTF Blender I/O v1.7.33",
        "version" : "2.0"
    },
    "scene" : 0,
    "scenes" : [
        {
            "name" : "Scene",
            "nodes" : [
                0
            ]
        }
    ],
    "nodes" : [
        {
            "mesh" : 0,
            "name" : "Plane",
            "rotation" : [
                0,
                0,
                -0.7071068286895752,
                0.7071068286895752
            ],
            "scale" : [
                0.5394764542579651,
                0.5394764542579651,
                0.5394764542579651
            ]
        }
    ],
    "materials" : [
        {
            "doubleSided" : true,
            "name" : "Material.001",
            "pbrMetallicRoughness" : {
                "baseColorFactor" : [
                    0.08101160824298859,
                    0.6078221201896667,
                    0.9892441630363464,
                    1
                ],
                "metallicFactor" : 0,
                "roughnessFactor" : 0.5
            }
        }
    ],
    "meshes" : [
        {
            "name" : "Plane",
            "primitives" : [
                {
                    "attributes" : {
                        "POSITION" : 0,
                        "NORMAL" : 1,
                        "TEXCOORD_0" : 2
                    },
                    "indices" : 3,
                    "material" : 0
                }
            ]
        }
    ],
    "accessors" : [
        {
            "bufferView" : 0,
            "componentType" : 5126,
            "count" : 65664,
            "max" : [
                0.6043738126754761,
                0.0246124267578125,
                0.6054720282554626
            ],
            "min" : [
                -0.6043456792831421,
                -0.026794910430908203,
                -0.6023839712142944
            ],
            "type" : "VEC3"
        },
        {
            "bufferView" : 1,
            "componentType" : 5126,
            "count" : 65664,
            "type" : "VEC3"
        },
        {
            "bufferView" : 2,
            "componentType" : 5126,
            "count" : 65664,
            "type" : "VEC2"
        },
        {
            "bufferView" : 3,
            "componentType" : 5125,
            "count" : 98496,
            "type" : "SCALAR"
        }
    ],
    "bufferViews" : [
        {
            "buffer" : 0,
            "byteLength" : 787968,
            "byteOffset" : 0
        },
        {
            "buffer" : 0,
            "byteLength" : 787968,
            "byteOffset" : 787968
        },
        {
            "buffer" : 0,
            "byteLength" : 525312,
            "byteOffset" : 1575936
        },
        {
            "buffer" : 0,
            "byteLength" : 393984,
            "byteOffset" : 2101248
        }
    ],
    "buffers" : [
        {
            "byteLength" : 2495232,
            "uri" : "data:application/octet-stream;base64,"
        }
    ]
}
